<svg version="1.1" viewBox="0.0 0.0 924.4356955380578 181.9475065616798" fill="none" stroke="none" stroke-linecap="square" stroke-miterlimit="10" xmlns:xlink="http://www.w3.org/1999/xlink" xmlns="http://www.w3.org/2000/svg"><clipPath id="p.0"><path d="m0 0l924.43567 0l0 181.94751l-924.43567 0l0 -181.94751z" clip-rule="nonzero"/></clipPath><g clip-path="url(#p.0)"><path fill="#000000" fill-opacity="0.0" d="m0 0l924.43567 0l0 181.94751l-924.43567 0z" fill-rule="evenodd"/><path fill="#000000" fill-opacity="0.0" d="m200.65355 5.1837273l733.8583 0l0 160.53543l-733.8583 0z" fill-rule="evenodd"/><path fill="#000000" d="m222.45042 42.094982q0 -2.1875 1.46875 -3.59375q1.484375 -1.40625 3.53125 -1.40625q2.171875 0 3.578125 1.40625q1.40625 1.40625 1.40625 3.59375l0 89.984375q0 2.046875 -1.40625 3.515625q-1.40625 1.46875 -3.578125 1.46875q-2.046875 0 -3.53125 -1.46875q-1.46875 -1.46875 -1.46875 -3.515625l0 -89.984375zm65.92775 24.187496q5.375 0 8.5 1.40625q3.140625 1.40625 3.140625 3.96875q0 0.765625 -0.125 1.15625q-0.515625 1.78125 -1.609375 2.421875q-1.078125 0.640625 -3.0 0.640625q-1.15625 0 -3.96875 -0.25q-1.015625 -0.125 -3.0625 -0.125q-9.609375 0 -15.6875 5.125q-6.078125 5.109375 -6.078125 13.296875l0 38.281258q0 2.296875 -1.28125 3.578125q-1.28125 1.28125 -3.578125 1.28125q-2.3125 0 -3.59375 -1.28125q-1.28125 -1.28125 -1.28125 -3.578125l0 -60.296883q0 -2.296875 1.28125 -3.578125q1.28125 -1.28125 3.59375 -1.28125q2.296875 0 3.578125 1.28125q1.28125 1.28125 1.28125 3.578125l0 5.640625q3.703125 -5.375 9.46875 -8.3125q5.765625 -2.953125 12.421875 -2.953125zm58.873993 0.125q10.109375 0 18.171875 4.609375q8.0625 4.609375 12.734375 12.796875q4.671875 8.1875 4.671875 18.3125q0 10.109375 -4.609375 18.234375q-4.59375 8.125008 -12.734375 12.734383q-8.125 4.609375 -18.234375 4.609375q-10.109375 0 -18.234375 -4.609375q-8.125 -4.609375 -12.734375 -12.734383q-4.609375 -8.125 -4.609375 -18.234375q0 -10.125 4.609375 -18.3125q4.609375 -8.1875 12.734375 -12.796875q8.125 -4.609375 18.234375 -4.609375zm0 8.953125q-7.296875 0 -13.25 3.46875q-5.953125 3.453125 -9.34375 9.53125q-3.390625 6.078125 -3.390625 13.765625q0 7.546875 3.390625 13.625q3.390625 6.078125 9.34375 9.546875q5.953125 3.4531326 13.25 3.4531326q7.421875 0 13.3125 -3.4531326q5.890625 -3.46875 9.21875 -9.546875q3.328125 -6.078125 3.328125 -13.625q0 -7.6875 -3.328125 -13.765625q-3.328125 -6.078125 -9.21875 -9.53125q-5.890625 -3.46875 -13.3125 -3.46875zm87.93729 -9.078125q9.09375 0 16.3125 3.84375q7.2343445 3.828125 11.3280945 11.1875q4.109375 7.359375 4.109375 17.609375l0 33.281258q0 2.046875 -1.421875 3.453125q-1.40625 1.40625 -3.453125 1.40625q-2.171875 0 -3.578125 -1.40625q-1.40625 -1.40625 -1.40625 -3.453125l0 -33.281258q0 -11.390625 -6.3437195 -17.34375q-6.328125 -5.953125 -16.578125 -5.953125q-6.265625 0 -11.328125 2.4375q-5.046875 2.421875 -8.0 6.71875q-2.9375 4.28125 -2.9375 9.53125l0 37.890633q0 2.171875 -1.34375 3.515625q-1.34375 1.34375 -3.515625 1.34375q-2.171875 0 -3.59375 -1.34375q-1.40625 -1.34375 -1.40625 -3.515625l0 -60.171883q0 -2.171875 1.40625 -3.578125q1.421875 -1.40625 3.59375 -1.40625q2.171875 0 3.515625 1.40625q1.34375 1.40625 1.34375 3.578125l0 4.359375q4.21875 -4.734375 10.234375 -7.421875q6.015625 -2.6875 13.0625 -2.6875zm119.937256 -29.187496q1.921875 0 3.125 1.34375q1.21875 1.34375 1.21875 3.265625q0 1.796875 -0.890625 3.203125l-34.9375 55.17187l0 32.000008q0 2.046875 -1.421875 3.515625q-1.40625 1.46875 -3.578125 1.46875q-2.046875 0 -3.515625 -1.46875q-1.46875 -1.46875 -1.46875 -3.515625l0 -32.000008l-34.828125 -55.17187q-1.015625 -1.671875 -1.015625 -3.203125q0 -1.921875 1.40625 -3.265625q1.40625 -1.34375 3.453125 -1.34375q1.40625 0 2.359375 0.578125q0.96875 0.578125 1.875 1.859375l31.859375 51.32812l31.75 -51.07812q1.03125 -1.40625 2.046875 -2.046875q1.03125 -0.640625 2.5625 -0.640625zm46.334656 29.312496q9.46875 0 16.765625 4.421875q7.296875 4.40625 11.328125 12.21875q4.03125 7.8125 4.03125 17.796875q0 2.046875 -1.28125 3.265625q-1.28125 1.203125 -3.328125 1.203125l-51.703125 0q1.015625 10.5 8.1875 17.03125q7.171875 6.5312576 17.921875 6.5312576q4.609375 0 9.28125 -1.5937576q4.671875 -1.609375 7.484375 -4.046875q1.671875 -1.28125 3.453125 -1.28125q1.40625 0 2.8125 1.03125q1.671875 1.53125 1.671875 3.453125q0 1.6718826 -1.40625 2.9375076q-4.21875 3.59375 -10.75 5.96875q-6.53125 2.359375 -12.546875 2.359375q-10.234375 0 -18.3125 -4.546875q-8.0625 -4.546875 -12.609375 -12.671883q-4.53125 -8.125 -4.53125 -18.359375q0 -10.375 4.28125 -18.5q4.296875 -8.125 11.90625 -12.671875q7.609375 -4.546875 17.34375 -4.546875zm0 8.828125q-9.734375 0 -16.140625 6.015625q-6.390625 6.015625 -7.796875 15.875l46.84375 0q-1.015625 -9.859375 -7.171875 -15.875q-6.140625 -6.015625 -15.734375 -6.015625zm80.638855 -8.828125q9.984375 0 18.109375 4.671875q8.125 4.671875 12.796875 12.875q4.671875 8.1875 4.671875 18.171875l0 30.078133q0 2.046875 -1.40625 3.453125q-1.40625 1.40625 -3.578125 1.40625q-2.171875 0 -3.59375 -1.34375q-1.40625 -1.34375 -1.40625 -3.515625l0 -7.6875076q-4.46875 6.1406326 -11.390625 9.671883q-6.90625 3.515625 -15.21875 3.515625q-9.734375 0 -17.609375 -4.671875q-7.875 -4.671875 -12.421875 -12.796883q-4.53125 -8.125 -4.53125 -18.109375q0 -9.984375 4.671875 -18.171875q4.671875 -8.203125 12.796875 -12.875q8.125 -4.671875 18.109375 -4.671875zm0 62.343758q7.296875 0 13.1875 -3.4531326q5.890625 -3.46875 9.28125 -9.546875q3.390625 -6.078125 3.390625 -13.625q0 -7.5625 -3.390625 -13.640625q-3.390625 -6.078125 -9.28125 -9.59375q-5.890625 -3.53125 -13.1875 -3.53125q-7.296875 0 -13.25 3.53125q-5.953125 3.515625 -9.34375 9.59375q-3.390625 6.078125 -3.390625 13.640625q0 7.546875 3.390625 13.625q3.390625 6.078125 9.34375 9.546875q5.953125 3.4531326 13.25 3.4531326zm78.98419 -62.343758q8.4375 0 14.703125 2.890625q6.28125 2.875 10.125 7.984375q1.015625 1.671875 1.015625 2.953125q0 2.171875 -2.046875 3.453125q-0.890625 0.640625 -2.421875 0.640625q-2.6875 0 -4.484375 -1.921875q-6.265625 -7.171875 -17.15625 -7.171875q-7.03125 0 -11.265625 2.890625q-4.21875 2.875 -4.21875 7.21875q0 4.609375 3.96875 7.375q3.96875 2.75 14.078125 4.40625q13.703125 2.3125 19.578125 7.5q5.890625 5.171875 5.890625 12.859375q0 5.875 -3.515625 10.484375q-3.515625 4.6093826 -9.796875 7.1718826q-6.265625 2.5625 -14.203125 2.5625q-7.9375 0 -15.234375 -2.6875q-7.296875 -2.6875 -11.78125 -7.5468826q-1.265625 -1.546875 -1.265625 -2.953125q0 -2.171875 2.046875 -3.84375q1.53125 -1.140625 3.1875 -1.140625q2.1875 0 3.71875 1.78125q3.078125 3.59375 8.125 5.515625q5.0625 1.9218826 11.203125 1.9218826q8.953125 0 13.4375 -3.0781326q4.484375 -3.078125 4.609375 -8.0625q0 -4.609375 -4.484375 -7.671875q-4.46875 -3.078125 -14.203125 -4.625q-12.546875 -2.046875 -18.75 -7.09375q-6.203125 -5.0625 -6.203125 -12.234375q0 -9.34375 7.21875 -14.453125q7.234375 -5.125 18.125 -5.125zm75.648254 60.796875q2.046875 0 3.3125 1.4062576q1.28125 1.40625 1.28125 3.59375q0 2.046875 -1.53125 3.453125q-1.53125 1.40625 -3.84375 1.40625l-2.6875 0q-6.78125 0 -12.15625 -3.265625q-5.375 -3.265625 -8.390625 -8.828133q-3.0 -5.5625 -3.0 -12.609375l0 -34.171875l-8.3125 0q-2.0625 0 -3.28125 -1.21875q-1.203125 -1.21875 -1.203125 -3.015625q0 -1.921875 1.203125 -3.125q1.21875 -1.21875 3.28125 -1.21875l8.3125 0l0 -19.843746q0 -2.171875 1.34375 -3.578125q1.34375 -1.40625 3.515625 -1.40625q2.1875 0 3.59375 1.40625q1.40625 1.40625 1.40625 3.578125l0 19.843746l14.46875 0q2.046875 0 3.25 1.21875q1.21875 1.203125 1.21875 3.125q0 1.796875 -1.21875 3.015625q-1.203125 1.21875 -3.25 1.21875l-14.46875 0l0 34.171875q0 6.53125 3.828125 10.6875q3.84375 4.15625 9.859375 4.15625l3.46875 0zm44.799744 -60.796875q8.4375 0 14.703125 2.890625q6.28125 2.875 10.125 7.984375q1.015625 1.671875 1.015625 2.953125q0 2.171875 -2.046875 3.453125q-0.890625 0.640625 -2.421875 0.640625q-2.6875 0 -4.484375 -1.921875q-6.265625 -7.171875 -17.15625 -7.171875q-7.03125 0 -11.265625 2.890625q-4.21875 2.875 -4.21875 7.21875q0 4.609375 3.96875 7.375q3.96875 2.75 14.078125 4.40625q13.703125 2.3125 19.578125 7.5q5.890625 5.171875 5.890625 12.859375q0 5.875 -3.515625 10.484375q-3.515625 4.6093826 -9.796875 7.1718826q-6.265625 2.5625 -14.203125 2.5625q-7.9375 0 -15.234375 -2.6875q-7.296875 -2.6875 -11.78125 -7.5468826q-1.265625 -1.546875 -1.265625 -2.953125q0 -2.171875 2.046875 -3.84375q1.53125 -1.140625 3.1875 -1.140625q2.1875 0 3.71875 1.78125q3.078125 3.59375 8.125 5.515625q5.0625 1.9218826 11.203125 1.9218826q8.953125 0 13.4375 -3.0781326q4.484375 -3.078125 4.609375 -8.0625q0 -4.609375 -4.484375 -7.671875q-4.46875 -3.078125 -14.203125 -4.625q-12.546875 -2.046875 -18.75 -7.09375q-6.203125 -5.0625 -6.203125 -12.234375q0 -9.34375 7.21875 -14.453125q7.234375 -5.125 18.125 -5.125z" fill-rule="nonzero"/><path fill="#ffffff" d="m75.4026 55.11298l0 0c0 -7.966816 6.493637 -14.425198 14.503937 -14.425198l0 0c3.8466873 0 7.53582 1.5197945 10.2558365 4.2250404c2.7200165 2.7052498 4.2481003 6.3743553 4.2481003 10.200157l0 0c0 7.966816 -6.4936295 14.425198 -14.503937 14.425198l0 0c-8.0103 0 -14.503937 -6.4583817 -14.503937 -14.425198z" fill-rule="evenodd"/><path stroke="#666666" stroke-width="4.0" stroke-linejoin="round" stroke-linecap="butt" d="m75.4026 55.11298l0 0c0 -7.966816 6.493637 -14.425198 14.503937 -14.425198l0 0c3.8466873 0 7.53582 1.5197945 10.2558365 4.2250404c2.7200165 2.7052498 4.2481003 6.3743553 4.2481003 10.200157l0 0c0 7.966816 -6.4936295 14.425198 -14.503937 14.425198l0 0c-8.0103 0 -14.503937 -6.4583817 -14.503937 -14.425198z" fill-rule="evenodd"/><path fill="#f6b26b" d="m113.88133 63.151604l0 0c0 -10.2368355 8.397308 -18.535435 18.755905 -18.535435l0 0c4.9743805 0 9.74501 1.9528351 13.262436 5.4289055c3.5174103 3.4760666 5.493469 8.190628 5.493469 13.106529l0 0c0 10.236839 -8.397308 18.53543 -18.755905 18.53543l0 0c-10.358597 0 -18.755905 -8.298592 -18.755905 -18.53543z" fill-rule="evenodd"/><path stroke="#666666" stroke-width="4.0" stroke-linejoin="round" stroke-linecap="butt" d="m113.88133 63.151604l0 0c0 -10.2368355 8.397308 -18.535435 18.755905 -18.535435l0 0c4.9743805 0 9.74501 1.9528351 13.262436 5.4289055c3.5174103 3.4760666 5.493469 8.190628 5.493469 13.106529l0 0c0 10.236839 -8.397308 18.53543 -18.755905 18.53543l0 0c-10.358597 0 -18.755905 -8.298592 -18.755905 -18.53543z" fill-rule="evenodd"/><path fill="#ffffff" d="m151.67911 82.64799l0 0c0 -4.5487366 3.7297974 -8.236221 8.330719 -8.236221l0 0c2.2094421 0 4.3283844 0.86774445 5.8907013 2.4123383c1.5623016 1.5445862 2.4400024 3.6395035 2.4400024 5.823883l0 0c0 4.548744 -3.729782 8.236221 -8.330704 8.236221l0 0c-4.6009216 0 -8.330719 -3.687477 -8.330719 -8.236221z" fill-rule="evenodd"/><path stroke="#666666" stroke-width="4.0" stroke-linejoin="round" stroke-linecap="butt" d="m151.67911 82.64799l0 0c0 -4.5487366 3.7297974 -8.236221 8.330719 -8.236221l0 0c2.2094421 0 4.3283844 0.86774445 5.8907013 2.4123383c1.5623016 1.5445862 2.4400024 3.6395035 2.4400024 5.823883l0 0c0 4.548744 -3.729782 8.236221 -8.330704 8.236221l0 0c-4.6009216 0 -8.330719 -3.687477 -8.330719 -8.236221z" fill-rule="evenodd"/><path fill="#ffffff" d="m149.43295 112.895325l0 0c0 -7.96682 6.493637 -14.425194 14.503937 -14.425194l0 0c3.8466797 0 7.5358124 1.5197906 10.255829 4.2250366c2.7200165 2.7052536 4.248108 6.374359 4.248108 10.200157l0 0c0 7.966812 -6.493637 14.425194 -14.503937 14.425194l0 0c-8.0103 0 -14.503937 -6.4583817 -14.503937 -14.425194z" fill-rule="evenodd"/><path stroke="#666666" stroke-width="4.0" stroke-linejoin="round" stroke-linecap="butt" d="m149.43295 112.895325l0 0c0 -7.96682 6.493637 -14.425194 14.503937 -14.425194l0 0c3.8466797 0 7.5358124 1.5197906 10.255829 4.2250366c2.7200165 2.7052536 4.248108 6.374359 4.248108 10.200157l0 0c0 7.966812 -6.493637 14.425194 -14.503937 14.425194l0 0c-8.0103 0 -14.503937 -6.4583817 -14.503937 -14.425194z" fill-rule="evenodd"/><path fill="#990000" d="m5.514443 76.01737l0 0c0 -17.064293 13.995508 -30.897636 31.259842 -30.897636l0 0c8.290627 0 16.241692 3.2552795 22.10405 9.049709c5.862358 5.79443 9.155792 13.65337 9.155792 21.847927l0 0c0 17.0643 -13.995506 30.897644 -31.259842 30.897644l0 0c-17.264334 0 -31.259842 -13.8333435 -31.259842 -30.897644z" fill-rule="evenodd"/><path stroke="#666666" stroke-width="4.0" stroke-linejoin="round" stroke-linecap="butt" d="m5.514443 76.01737l0 0c0 -17.064293 13.995508 -30.897636 31.259842 -30.897636l0 0c8.290627 0 16.241692 3.2552795 22.10405 9.049709c5.862358 5.79443 9.155792 13.65337 9.155792 21.847927l0 0c0 17.0643 -13.995506 30.897644 -31.259842 30.897644l0 0c-17.264334 0 -31.259842 -13.8333435 -31.259842 -30.897644z" fill-rule="evenodd"/><path fill="#4a86e8" d="m122.97125 138.12701l0 0c0 -7.9668274 6.493637 -14.425201 14.503937 -14.425201l0 0c3.8466797 0 7.5358124 1.5197906 10.255829 4.2250443c2.7200165 2.7052536 4.248108 6.3743515 4.248108 10.200157l0 0c0 7.966812 -6.493637 14.425186 -14.503937 14.425186l0 0c-8.0103 0 -14.503937 -6.458374 -14.503937 -14.425186z" fill-rule="evenodd"/><path stroke="#666666" stroke-width="4.0" stroke-linejoin="round" stroke-linecap="butt" d="m122.97125 138.12701l0 0c0 -7.9668274 6.493637 -14.425201 14.503937 -14.425201l0 0c3.8466797 0 7.5358124 1.5197906 10.255829 4.2250443c2.7200165 2.7052536 4.248108 6.3743515 4.248108 10.200157l0 0c0 7.966812 -6.493637 14.425186 -14.503937 14.425186l0 0c-8.0103 0 -14.503937 -6.458374 -14.503937 -14.425186z" fill-rule="evenodd"/><path fill="#ffffff" d="m76.894104 146.44427l0 0c0 -10.236847 8.397308 -18.535439 18.755905 -18.535439l0 0c4.9743805 0 9.745018 1.9528275 13.262428 5.4289017c3.517418 3.4760742 5.493477 8.190628 5.493477 13.106537l0 0c0 10.236832 -8.397301 18.53543 -18.755905 18.53543l0 0c-10.358597 0 -18.755905 -8.298599 -18.755905 -18.53543z" fill-rule="evenodd"/><path stroke="#666666" stroke-width="4.0" stroke-linejoin="round" stroke-linecap="butt" d="m76.894104 146.44427l0 0c0 -10.236847 8.397308 -18.535439 18.755905 -18.535439l0 0c4.9743805 0 9.745018 1.9528275 13.262428 5.4289017c3.517418 3.4760742 5.493477 8.190628 5.493477 13.106537l0 0c0 10.236832 -8.397301 18.53543 -18.755905 18.53543l0 0c-10.358597 0 -18.755905 -8.298599 -18.755905 -18.53543z" fill-rule="evenodd"/><path fill="#6aa84f" d="m42.916275 125.9842l0 0c0 -7.96682 6.4936333 -14.425201 14.503937 -14.425201l0 0c3.8466835 0 7.53582 1.5197983 10.2558365 4.2250443c2.7200165 2.7052536 4.2481003 6.3743515 4.2481003 10.200157l0 0c0 7.96682 -6.4936295 14.425194 -14.503937 14.425194l0 0c-8.0103035 0 -14.503937 -6.458374 -14.503937 -14.425194z" fill-rule="evenodd"/><path stroke="#666666" stroke-width="4.0" stroke-linejoin="round" stroke-linecap="butt" d="m42.916275 125.9842l0 0c0 -7.96682 6.4936333 -14.425201 14.503937 -14.425201l0 0c3.8466835 0 7.53582 1.5197983 10.2558365 4.2250443c2.7200165 2.7052536 4.2481003 6.3743515 4.2481003 10.200157l0 0c0 7.96682 -6.4936295 14.425194 -14.503937 14.425194l0 0c-8.0103035 0 -14.503937 -6.458374 -14.503937 -14.425194z" fill-rule="evenodd"/><path fill="#000000" fill-opacity="0.0" d="m89.90654 69.53818l5.7322845 58.362206" fill-rule="evenodd"/><path stroke="#666666" stroke-width="4.0" stroke-linejoin="round" stroke-linecap="butt" d="m89.90654 69.53818l5.7322845 58.362206" fill-rule="evenodd"/><path fill="#000000" fill-opacity="0.0" d="m68.03413 76.01737l81.385826 36.88189" fill-rule="evenodd"/><path stroke="#666666" stroke-width="4.0" stroke-linejoin="round" stroke-linecap="butt" d="m68.03413 76.01737l81.385826 36.88189" fill-rule="evenodd"/><path fill="#000000" fill-opacity="0.0" d="m119.37481 76.25813l-51.685036 39.527557" fill-rule="evenodd"/><path stroke="#666666" stroke-width="4.0" stroke-linejoin="round" stroke-linecap="butt" d="m119.37481 76.25813l-51.685036 39.527557" fill-rule="evenodd"/><path fill="#000000" fill-opacity="0.0" d="m58.878334 97.8653l36.7874 30.047241" fill-rule="evenodd"/><path stroke="#666666" stroke-width="4.0" stroke-linejoin="round" stroke-linecap="butt" d="m58.878334 97.8653l36.7874 30.047241" fill-rule="evenodd"/><path fill="#000000" fill-opacity="0.0" d="m58.878334 97.8653l-1.448822 13.70079" fill-rule="evenodd"/><path stroke="#666666" stroke-width="4.0" stroke-linejoin="round" stroke-linecap="butt" d="m58.878334 97.8653l-1.448822 13.70079" fill-rule="evenodd"/><path fill="#000000" fill-opacity="0.0" d="m68.03413 76.01737l11.622047 -10.708656" fill-rule="evenodd"/><path stroke="#666666" stroke-width="4.0" stroke-linejoin="round" stroke-linecap="butt" d="m68.03413 76.01737l11.622047 -10.708656" fill-rule="evenodd"/><path fill="#000000" fill-opacity="0.0" d="m58.878334 97.8653l68.34646 30.047241" fill-rule="evenodd"/><path stroke="#666666" stroke-width="4.0" stroke-linejoin="round" stroke-linecap="butt" d="m58.878334 97.8653l68.34646 30.047241" fill-rule="evenodd"/><path fill="#000000" fill-opacity="0.0" d="m127.21936 127.92686l-7.8425217 -51.65355" fill-rule="evenodd"/><path stroke="#666666" stroke-width="4.0" stroke-linejoin="round" stroke-linecap="butt" d="m127.21936 127.92686l-7.8425217 -51.65355" fill-rule="evenodd"/><path fill="#000000" fill-opacity="0.0" d="m127.21936 127.92686l22.204727 -15.023621" fill-rule="evenodd"/><path stroke="#666666" stroke-width="4.0" stroke-linejoin="round" stroke-linecap="butt" d="m127.21936 127.92686l22.204727 -15.023621" fill-rule="evenodd"/><path fill="#000000" fill-opacity="0.0" d="m149.43295 112.895325l4.692917 -24.409447" fill-rule="evenodd"/><path stroke="#666666" stroke-width="4.0" stroke-linejoin="round" stroke-linecap="butt" d="m149.43295 112.895325l4.692917 -24.409447" fill-rule="evenodd"/><path fill="#000000" fill-opacity="0.0" d="m89.90654 69.53818l-22.236221 46.23622" fill-rule="evenodd"/><path stroke="#666666" stroke-width="4.0" stroke-linejoin="round" stroke-linecap="butt" d="m89.90654 69.53818l-22.236221 46.23622" fill-rule="evenodd"/><path fill="#000000" fill-opacity="0.0" d="m67.67605 115.78404l27.968498 12.125984" fill-rule="evenodd"/><path stroke="#666666" stroke-width="4.0" stroke-linejoin="round" stroke-linecap="butt" d="m67.67605 115.78404l27.968498 12.125984" fill-rule="evenodd"/><path fill="#000000" fill-opacity="0.0" d="m95.65001 127.90884l31.55906 0.03149414" fill-rule="evenodd"/><path stroke="#666666" stroke-width="4.0" stroke-linejoin="round" stroke-linecap="butt" d="m95.65001 127.90884l31.55906 0.03149414" fill-rule="evenodd"/><path fill="#000000" fill-opacity="0.0" d="m95.65001 127.90884l23.716537 -51.65354" fill-rule="evenodd"/><path stroke="#666666" stroke-width="4.0" stroke-linejoin="round" stroke-linecap="butt" d="m95.65001 127.90884l23.716537 -51.65354" fill-rule="evenodd"/><path fill="#000000" fill-opacity="0.0" d="m95.65001 127.90884l53.795273 -15.023621" fill-rule="evenodd"/><path stroke="#666666" stroke-width="4.0" stroke-linejoin="round" stroke-linecap="butt" d="m95.65001 127.90884l53.795273 -15.023621" fill-rule="evenodd"/><path fill="#000000" fill-opacity="0.0" d="m149.43295 112.895325l-30.047241 -36.62992" fill-rule="evenodd"/><path stroke="#666666" stroke-width="4.0" stroke-linejoin="round" stroke-linecap="butt" d="m149.43295 112.895325l-30.047241 -36.62992" fill-rule="evenodd"/><path fill="#000000" fill-opacity="0.0" d="m154.11913 88.47188l-58.456696 39.433067" fill-rule="evenodd"/><path stroke="#666666" stroke-width="4.0" stroke-linejoin="round" stroke-linecap="butt" d="m154.11913 88.47188l-58.456696 39.433067" fill-rule="evenodd"/><path fill="#000000" fill-opacity="0.0" d="m154.11913 88.47188l-21.480316 -6.771652" fill-rule="evenodd"/><path stroke="#666666" stroke-width="4.0" stroke-linejoin="round" stroke-linecap="butt" d="m154.11913 88.47188l-21.480316 -6.771652" fill-rule="evenodd"/><path fill="#000000" fill-opacity="0.0" d="m119.37481 76.25813l-29.480316 -6.7086563" fill-rule="evenodd"/><path stroke="#666666" stroke-width="4.0" stroke-linejoin="round" stroke-linecap="butt" d="m119.37481 76.25813l-29.480316 -6.7086563" fill-rule="evenodd"/><path fill="#000000" fill-opacity="0.0" d="m119.37481 76.25813l-51.338577 -0.25196838" fill-rule="evenodd"/><path stroke="#666666" stroke-width="4.0" stroke-linejoin="round" stroke-linecap="butt" d="m119.37481 76.25813l-51.338577 -0.25196838" fill-rule="evenodd"/></g></svg>